<?xml version="1.0" standalone="no"?>
<!DOCTYPE svg PUBLIC "-//W3C//DTD SVG 20010904//EN"
 "http://www.w3.org/TR/2001/REC-SVG-20010904/DTD/svg10.dtd">
<svg version="1.0" xmlns="http://www.w3.org/2000/svg"
 width="180.000000pt" height="180.000000pt" viewBox="0 0 180.000000 180.000000"
 preserveAspectRatio="xMidYMid meet">
<metadata>
Created by potrace 1.14, written by Peter Selinger 2001-2017
</metadata>
<g transform="translate(0.000000,180.000000) scale(0.100000,-0.100000)"
fill="#000000" stroke="none">
<path d="M549 1327 c-105 -30 -151 -92 -159 -212 l-5 -80 -62 -3 -63 -3 0 -64
0 -65 65 0 65 0 2 -222 3 -223 90 0 90 0 0 223 0 222 87 0 c48 0 89 3 91 8 3
4 8 33 12 65 l7 57 -94 0 c-52 0 -97 2 -99 4 -3 3 -2 35 1 71 8 91 36 107 154
86 38 -6 73 -8 77 -4 4 5 17 31 28 60 l20 51 -47 17 c-64 22 -205 28 -263 12z"/>
<path d="M917 1073 c-3 -4 37 -73 88 -152 l93 -144 -56 -86 c-30 -47 -77 -118
-103 -157 -26 -40 -45 -74 -42 -78 4 -3 48 -6 100 -6 l93 0 58 116 58 115 59
-113 60 -113 103 -3 c62 -2 102 1 102 7 0 6 -43 76 -96 157 -53 81 -98 153
-101 159 -2 7 34 75 81 151 47 75 86 141 86 146 0 4 -43 8 -96 8 l-95 0 -48
-102 -47 -102 -50 99 -49 100 -97 3 c-53 1 -99 -1 -101 -5z"/>
</g>
</svg>
